<?xml version="1.0" standalone="no"?>
<!DOCTYPE svg PUBLIC "-//W3C//DTD SVG 1.1//EN" "http://www.w3.org/Graphics/SVG/1.1/DTD/svg11.dtd" >
<svg xmlns="http://www.w3.org/2000/svg">
<metadata>Generated by IcoMoon</metadata>
<defs>
<font id="graingerFont" horiz-adv-x="1024">
<font-face units-per-em="1024" ascent="960" descent="-64" />
<missing-glyph horiz-adv-x="1024" />
<glyph unicode="&#x20;" d="" horiz-adv-x="512" />
<glyph unicode="&#xe600;" d="M896 920.576h-768c-70.656 0-128-57.344-128-128v-406.912c0-70.656 57.344-128 128-128h291.52v-172.736h-136.96c-30.144 0-54.656-24.512-54.656-54.656 0-30.272 24.448-54.72 54.656-54.72h458.88c30.208 0 54.656 24.448 54.656 54.72 0 30.144-24.512 54.656-54.656 54.656h-136.832v172.736h291.392c70.656 0 128 57.344 128 128v406.912c0 70.656-57.344 128-128 128zM905.6 382.848h-787.072v412.608h787.072v-412.608z" />
<glyph unicode="&#xe601;" d="M832 438.784v133.76c0 33.472-34.24 67.456-64 67.456-29.632 0-64-33.984-64-67.456v-133.76c0-100.864-83.904-182.784-207.488-182.784-126.784 0-176.512 82.944-176.512 182.784v133.76c0 33.472-34.624 67.456-64 67.456-29.504 0-64-33.984-64-67.456v-133.76c0-131.392 86.528-289.472 249.152-310.784v-64h-185.152c0 0-64-10.304-64-64 0-53.568 64-64 64-64h512c0 0 64 11.328 64 64 0 52.8-64 64-64 64h-216.128v64c162.624 21.312 280.128 173.888 280.128 310.784zM640 835.584c0 68.672-59.264 124.416-128 124.416s-128-55.744-128-124.416v-195.584h256v195.584zM512 320c68.736 0 128 55.744 128 124.416v131.584h-256v-131.584c0-68.672 59.264-124.416 128-124.416z" />
<glyph unicode="&#xe602;" d="M896 960h-768c-70.72 0-128-57.344-128-128v-768c0-70.656 57.28-128 128-128h768c70.72 0 128 57.344 128 128v768c0 70.656-57.28 128-128 128zM512 96c-194.432 0-352 157.632-352 352 0 194.432 157.568 352 352 352 194.368 0 352-157.568 352-352 0-194.368-157.632-352-352-352zM758.976 448l-366.016-211.392v422.784l183.040-105.728z" />
<glyph unicode="&#xe603;" d="M512 674.112l384-452.224h-768l192 226.112z" />
<glyph unicode="&#xe604;" d="M512 960c-282.752 0-512-229.248-512-512s229.248-512 512-512c282.752 0 512 229.248 512 512 0 282.752-229.248 512-512 512zM202.944 227.136c-24.256 0-44.096 19.648-44.096 44.096 0 24.256 19.776 44.032 44.096 44.032 24.448 0 44.224-19.776 44.224-44.032 0-24.384-19.776-44.096-44.224-44.096zM202.944 403.904c-24.256 0-44.096 19.648-44.096 44.032 0 24.256 19.776 44.096 44.096 44.096 24.448 0 44.224-19.776 44.224-44.096 0-24.384-19.776-44.032-44.224-44.032zM202.944 580.8c-24.256 0-44.096 19.712-44.096 44.032 0 24.384 19.776 44.096 44.096 44.096 24.448 0 44.224-19.648 44.224-44.096 0-24.256-19.776-44.032-44.224-44.032zM865.28 253.952c0-14.784-11.904-26.688-26.624-26.688h-476.16c-14.848 0-26.88 12.032-26.88 26.688v33.344c0 14.656 12.032 26.88 26.88 26.752l476.16-0.192c14.72 0.192 26.624-11.84 26.624-26.752v-33.152zM865.28 431.040c0-14.784-11.904-26.688-26.624-26.688h-476.288c-14.848 0-26.88 11.904-26.88 26.688v33.28c0 14.784 12.032 26.816 26.88 26.688h476.224c14.72 0.128 26.624-11.968 26.624-26.688v-33.28zM865.28 608.128c0-14.848-11.968-26.688-26.624-26.688h-476.288c-14.848 0-26.88 12.032-26.88 26.688v33.344c0 14.72 12.032 26.816 26.88 26.752l476.224-0.128c14.72 0.128 26.624-11.84 26.624-26.752v-33.216z" />
<glyph unicode="&#xe605;" d="M0 321.024h192.32c0 0 115.328-131.904 168.32-152.256 16.832-6.528 72.128 0 72.128 0v558.272c0 0-55.488 6.912-72.128 0-55.296-23.232-168.32-171.008-168.32-171.008h-192.32v-235.008zM542.272 216.576c-12.16 0-24.256 5.312-32.512 15.616-14.464 17.92-11.52 44.032 6.528 58.496 48.64 39.040 76.608 96.384 76.608 157.312s-27.968 118.272-76.608 157.312c-18.048 14.336-20.992 40.512-6.528 58.56 14.336 18.048 40.768 20.8 58.56 6.4 68.544-54.912 107.776-136 107.776-222.272 0-86.272-39.232-167.36-107.904-222.272-7.552-6.208-16.768-9.152-25.92-9.152zM712.064 132.992c-9.536 0-19.2 3.264-26.944 9.856-17.6 14.848-19.776 41.28-4.8 58.752 58.56 68.864 90.752 156.288 90.752 246.336s-32.192 177.472-90.752 246.4c-14.912 17.536-12.8 43.904 4.8 58.688 17.344 14.848 43.776 12.736 58.688-4.736 71.296-83.968 110.592-190.592 110.592-300.288s-39.232-216.32-110.592-300.224c-8.256-9.792-19.904-14.784-31.744-14.784zM867.2 56.64c-8.512 0-17.152 2.624-24.576 8.064-18.56 13.696-22.656 39.68-9.024 58.24 70.016 95.296 107.008 207.744 107.008 325.056s-36.992 229.76-107.008 325.12c-13.632 18.496-9.536 44.544 9.024 58.176 18.496 13.76 44.608 9.536 58.176-8.96 80.576-109.76 123.2-239.168 123.2-374.336 0-135.104-42.624-264.576-123.2-374.4-8.128-10.944-20.736-16.96-33.6-16.96z" />
<glyph unicode="&#xe606;" d="M1001.472 246.528c0 45.632 0 119.168 0 141.504 0 33.28-99.648 33.344-99.648 33.344s-14.016 266.752-32.128 328.64c-17.344 59.84-115.904 54.080-115.904 54.080h-660.288c-0.896 0.064-4.416 0.064-5.312 0-16.448-1.472-29.12-14.336-30.464-30.784 0-0.768 0-3.968 0-4.736v-499.84h-25.088v-53.312h-32.64v-28.096h85.504v21.376h110.336c15.36 60.48 69.76 105.536 134.912 105.536 65.216 0 119.616-44.992 134.976-105.472h184.128c15.36 60.48 69.824 105.472 134.848 105.472 65.152 0 119.552-44.992 134.912-105.344h51.328v-15.36h53.056v52.992h-22.528zM692.48 417.6v268.48c0 0 117.248 8.128 127.488-16.32s26.496-252.16 26.496-252.16h-153.984zM867.648 174.656c0-45.703-37.049-82.752-82.752-82.752s-82.752 37.049-82.752 82.752c0 45.703 37.049 82.752 82.752 82.752 45.703 0 82.752-37.049 82.752-82.752zM413.504 174.656c0-45.703-37.049-82.752-82.752-82.752s-82.752 37.049-82.752 82.752c0 45.703 37.049 82.752 82.752 82.752 45.703 0 82.752-37.049 82.752-82.752z" />
<glyph unicode="&#xe607;" d="M610.88 188.288c0-37.502-30.402-67.904-67.904-67.904-37.502 0-67.904 30.402-67.904 67.904 0 37.502 30.402 67.904 67.904 67.904 37.502 0 67.904-30.402 67.904-67.904zM946.24 188.288c0-37.538-30.43-67.968-67.968-67.968s-67.968 30.43-67.968 67.968c0 37.538 30.43 67.968 67.968 67.968 37.538 0 67.968-30.43 67.968-67.968zM1016.64 625.216c-17.856 51.904-57.344 47.040-57.344 47.040h-568.96l-60.8 90.56-1.28 0.704c-3.648 7.104-10.88 12.032-19.392 12.032h-56.896c-28.224 0-51.072-22.784-51.072-51.072 0-26.176 19.84-46.784 45.12-49.856l37.184-2.368c80.832-109.952 169.344-326.336 169.344-326.336l0.128-0.192c3.136-8.384 11.072-14.592 20.608-14.592 0.32 0 0.576 0.064 0.896 0.128h433.344c119.488 94.080 127.104 242.112 109.12 293.952zM226.112 569.6h-152.192c-13.376 0-24.128 10.816-24.128 24.128s10.752 24.192 24.128 24.192h152.192c13.376 0 24.192-10.816 24.192-24.192s-10.816-24.128-24.192-24.128zM254.080 450.624h-200.064c-13.312 0-24.128 10.816-24.128 24.128s10.816 24.128 24.128 24.128h200.064c13.312 0 24.128-10.816 24.128-24.128s-10.816-24.128-24.128-24.128zM277.888 331.776h-253.76c-13.312 0-24.128 10.752-24.128 24.128 0 13.248 10.816 24.128 24.128 24.128h253.76c13.312 0 24.128-10.88 24.128-24.128 0.064-13.376-10.816-24.128-24.128-24.128z" />
<glyph unicode="&#xe608;" d="M917.248 822.592h-120.896v-136.192h-568.768v136.192h-120.832c-31.424 0-56.896-25.472-56.896-56.896v-445.312c0-31.36 25.408-56.896 56.896-56.896h120.832v189.888h568.896v-189.952h120.832c31.424 0 56.96 25.408 56.96 56.896v445.312c-0.128 31.424-25.6 56.96-57.024 56.96zM284.416 960h455.104v-216.768h-455.104v216.768zM739.648 396.48h-455.232v-460.48h455.104v460.48h0.128zM707.008-0.768h-390.080v67.136h390.080v-67.136zM707.008 129.344h-390.080v67.136h390.080v-67.136zM316.928 259.328v67.2h390.080v-67.2h-390.080z" />
<glyph unicode="&#xe609;" d="M335.040 471.232c0-15.104 4.096-26.432 12.544-34.048 8.384-7.808 21.184-14.72 38.272-21.056v109.248c-15.936-4.736-28.48-10.944-37.44-18.752-8.896-7.808-13.376-19.648-13.376-35.392zM422.144 331.392v-124.992c19.2 3.904 33.984 11.52 44.544 23.168 10.368 11.584 15.68 25.088 15.68 40.448 0 16.64-5.12 29.376-15.232 38.4-10.24 9.024-25.216 16.768-44.992 22.976zM777.408 449.664c-156.992 0-284.736 127.808-284.736 284.8 0 7.36 1.6 14.272 2.176 21.504h-478.272v-819.968l77.568 51.264 77.568-51.264 77.44 51.264 77.184-51.264 77.44 51.264 77.248-51.264 77.12 51.264 77.312-51.264 77.056 51.264 76.928-51.264v514.88c-4.096-0.192-7.872-1.216-12.032-1.216zM537.472 218.496c-10.112-18.88-25.216-34.24-44.864-46.336-19.84-12.032-43.328-19.072-70.528-21.44v-70.976c0-11.2-1.216-19.328-3.328-24.576-2.112-5.184-6.912-7.744-14.4-7.744-6.848 0-11.712 2.112-14.4 6.464-2.752 4.096-4.16 10.624-4.16 19.328v77.056c-22.208 2.496-41.792 7.68-58.368 15.68-16.64 8.064-30.528 17.92-41.536 29.696-11.264 11.968-19.456 24.384-24.832 37.248-5.312 12.8-7.872 25.344-7.872 37.76 0 9.152 3.584 17.344 10.688 24.64 7.104 7.424 15.872 11.072 26.688 11.072 8.576 0 15.68-1.92 21.632-6.016 5.888-3.968 9.984-9.6 12.352-16.832 4.992-15.616 9.408-27.584 13.312-35.776 3.84-8.384 9.6-16 17.28-22.72 7.744-6.848 17.856-12.096 30.656-15.744v132.736c-25.408 6.976-46.72 14.848-63.872 23.488-17.152 8.64-30.912 20.992-41.6 36.992-10.688 15.872-15.936 36.416-15.936 61.568 0 32.704 10.304 59.584 31.040 80.448 20.928 20.992 51.008 33.152 90.432 36.544v30.208c0 16 6.016 24 17.984 24 12.096 0 18.24-7.808 18.24-23.36v-30.848c20.288-2.112 37.76-6.336 52.352-12.672 14.528-6.144 27.328-15.68 38.144-28.416 8.576-9.728 15.104-19.648 19.84-29.952 4.672-10.304 6.848-19.712 6.848-28.224 0-9.472-3.328-17.792-10.304-24.64-6.976-7.040-15.296-10.496-25.344-10.496-18.56 0-30.656 10.112-36.16 30.272-6.208 23.68-21.248 39.552-45.312 47.36v-118.656c23.488-6.528 42.24-12.352 56.384-17.792 13.888-5.184 26.368-12.928 37.504-22.912 11.712-10.56 20.8-22.976 27.328-37.632 6.336-14.528 9.408-30.528 9.408-47.808 0-21.76-4.992-41.92-15.296-60.992zM779.712 960c-125.824 0-227.712-101.888-227.712-227.712s101.888-227.776 227.712-227.776 227.776 101.952 227.776 227.776-102.016 227.712-227.776 227.712zM886.464 662.72c-5.44-8.448-14.656-13.056-23.936-13.056-5.376 0-10.688 1.472-15.488 4.544l-83.648 54.144c-8.128 5.248-13.056 14.272-13.056 23.936v154.752c0 15.744 12.736 28.48 28.48 28.48s28.48-12.736 28.48-28.48v-139.2l70.656-45.696c13.248-8.576 16.96-26.24 8.512-39.424z" />
<glyph unicode="&#xe60a;" d="M775.36 904.128v55.872h-754.56v-800.384l55.872 36.864v707.648h642.752zM884.352 848.256h-754.432v-800.448l55.872 36.928v707.648h698.56zM248.64 736.448v-800.448l75.712 50.048 75.712-50.048 75.648 50.048 75.264-50.048 75.584 50.048 75.456-50.048 75.392 50.048 75.328-50.048 75.2 50.048 75.264-50.048v800.448h-754.56zM757.312 245.76c-9.984-18.432-24.576-33.472-43.968-45.248-19.392-11.648-42.112-18.56-68.736-20.864v-69.376c0-10.944-1.152-18.752-3.264-23.872s-6.784-7.616-14.080-7.616c-6.656 0-11.392 2.112-14.080 6.336-2.624 4.032-3.904 10.304-3.904 18.816v75.264c-21.76 2.368-40.832 7.488-57.024 15.296-16.32 7.808-29.824 17.344-40.64 28.992-11.008 11.648-18.944 23.808-24.192 36.352-5.184 12.48-7.68 24.832-7.68 36.8 0 8.96 3.456 16.96 10.368 24.064 6.976 7.296 15.616 10.816 26.048 10.816 8.384 0 15.424-1.856 21.12-5.76 5.76-3.84 9.856-9.344 12.032-16.384 4.928-15.232 9.344-26.88 13.056-34.944 3.776-8.192 9.344-15.552 16.896-22.208 7.488-6.656 17.472-11.904 30.016-15.36v129.664c-24.96 6.784-45.76 14.4-62.464 22.784-16.768 8.448-30.272 20.544-40.704 36.16-10.432 15.488-15.552 35.52-15.552 60.096 0 31.872 10.048 58.112 30.4 78.528 20.352 20.48 49.792 32.32 88.256 35.648v29.44c0 15.616 5.888 23.488 17.536 23.488 11.84 0 17.792-7.616 17.792-22.784v-30.144c19.84-2.048 36.864-6.144 51.136-12.352 14.208-6.016 26.624-15.36 37.184-27.776 8.32-9.472 14.784-19.2 19.328-29.248 4.608-10.112 6.72-19.264 6.72-27.584 0-9.28-3.264-17.408-10.048-24.064-6.784-6.784-14.976-10.24-24.704-10.24-18.112 0-30.016 9.856-35.392 29.632-6.080 23.104-20.736 38.592-44.224 46.208v-115.904c22.976-6.336 41.216-12.096 54.976-17.344 13.632-5.184 25.728-12.672 36.608-22.592 11.52-10.176 20.224-22.4 26.624-36.608 6.144-14.144 9.28-29.696 9.28-46.656 0.064-21.12-4.8-40.896-14.72-59.456zM644.48 355.968v-122.048c18.752 3.712 33.28 11.2 43.52 22.592s15.36 24.64 15.36 39.552c0 16.192-4.928 28.608-14.912 37.44-9.92 8.896-24.512 16.448-43.968 22.464zM559.68 492.544c0-14.784 3.968-25.792 12.288-33.28 8-7.552 20.48-14.4 37.248-20.48v106.624c-15.616-4.608-27.776-10.688-36.544-18.304-8.704-7.616-12.992-19.2-12.992-34.56z" />
<glyph unicode="&#xe60b;" d="M507.008 960c-282.816-2.816-509.76-234.304-506.944-516.992 2.752-282.752 234.176-509.76 517.056-507.008 282.688 2.752 509.632 234.304 506.816 516.992-2.752 282.752-234.24 509.696-516.928 507.008zM554.624 53.504l-1.856 190.144-77.312-0.832 1.856-190.016c-189.12 16.64-339.52 163.84-359.744 352.64l179.776 1.792-0.896 77.376-179.776-1.792c16.64 189.248 163.968 339.392 352.832 359.808l1.664-174.592 77.312 0.896-1.664 174.464c189.184-16.768 339.328-163.968 359.616-352.768l-184.96-1.792 0.832-77.312 184.832 1.728c-16.512-188.928-163.712-339.328-352.512-359.744z" />
<glyph unicode="&#xe60c;" d="M387.264 960h-323.904c-34.752 0-63.104-28.992-63.104-64.384v-319.168c0-35.456 28.352-64.448 63.104-64.448h323.904c34.752 0 63.168 28.992 63.168 64.384v319.232c0 35.392-28.416 64.384-63.168 64.384zM960.64 960h-323.904c-34.88 0-63.232-28.992-63.232-64.384v-319.168c0-35.456 28.352-64.448 63.232-64.448h323.904c34.624 0 63.104 28.992 63.104 64.384v319.232c0 35.392-28.48 64.384-63.104 64.384zM960.64 384h-323.904c-34.88 0-63.232-28.992-63.232-64.384v-319.232c0-35.392 28.352-64.384 63.232-64.384h323.904c34.624 0 63.104 28.992 63.104 64.384v319.232c0 35.392-28.48 64.384-63.104 64.384zM387.264 384h-323.904c-34.752 0-63.104-28.992-63.104-64.384v-319.232c0-35.392 28.352-64.384 63.104-64.384h323.904c34.752 0 63.168 28.992 63.168 64.384v319.232c0 35.392-28.416 64.384-63.168 64.384z" />
<glyph unicode="&#xe60d;" d="M852.48 619.456c0 188.096-152.384 340.544-340.48 340.544-188.032 0-340.48-152.448-340.48-340.544 0-61.12 17.344-117.632 45.568-167.232h-1.088l232.768-467.84c2.112-7.68 5.696-14.464 10.304-20.544 12.096-16.512 30.528-27.84 52.544-27.84 23.616 0 43.456 12.992 55.104 31.68 3.008 4.544 5.504 9.088 7.104 14.336l242.176 485.312h-0.96c23.36 45.952 37.44 97.088 37.44 152.128zM512 473.344c-80.64 0-145.792 65.344-145.792 145.984s65.28 145.984 145.792 145.984 145.856-65.344 145.856-145.92c0-80.576-65.28-146.048-145.856-146.048z" />
<glyph unicode="&#xe60e;" d="M512-16.32c5.44 7.168 207.232 159.296 374.656 373.056 65.152 83.008 273.536 363.712 0 522.304-218.624 126.72-374.656-149.376-374.656-149.376s-156.032 276.096-374.656 149.376c-273.536-158.592-65.088-439.232 0-522.304 167.36-213.76 369.216-365.888 374.656-373.056z" />
<glyph unicode="&#xe60f;" d="M0 544v-192c0-17.672 14.328-32 32-32h960c17.672 0 32 14.328 32 32v192c0 17.672-14.328 32-32 32h-960c-17.672 0-32-14.328-32-32z" />
<glyph unicode="&#xe610;" d="M723.968 959.936h-423.936l-300.032-299.84v-424.064l300.032-299.968h424l299.968 299.968v424.064l-300.032 299.84zM512.064 89.984c-40.512 0-73.28 32.704-73.28 73.152 0 40.512 32.768 73.28 73.28 73.28 40.448 0 73.216-32.768 73.216-73.28 0-40.448-32.768-73.152-73.216-73.152zM585.28 366.848c0-40.384-32.768-73.216-73.216-73.216-40.512 0-73.28 32.832-73.28 73.216v365.952c0 40.448 32.768 73.216 73.28 73.216 40.448 0 73.216-32.768 73.216-73.216v-365.952z" />
<glyph unicode="&#xe611;" d="M995.2 103.936l-215.808 215.872c99.264 162.048 79.232 376.576-60.992 516.992-164.288 164.288-430.656 164.288-595.136 0-164.288-164.352-164.352-430.72 0-595.2 140.352-140.224 354.88-160.384 516.928-60.864l215.872-215.872c38.464-38.528 100.736-38.528 139.136 0 38.4 38.4 38.4 100.608 0 139.072zM622.656 337.472c-111.488-111.424-292.032-111.424-403.52 0s-111.488 291.968 0 403.456c111.36 111.424 291.968 111.424 403.392 0 111.424-111.36 111.424-292.032 0.128-403.456zM574.272 598.592h-94.208v94.080c0 28.032-22.656 50.688-50.688 50.752l-17.216-0.192c-28.032 0-50.688-22.656-50.688-50.688v-94.080h-94.080c-27.968 0.192-50.624-22.656-50.56-50.56v-17.152c0-28.032 22.656-50.752 50.624-50.752h94.144v-94.080c0-28.096 22.656-50.688 50.688-50.688h17.152c28.032 0 50.688 22.592 50.688 50.688v94.080h94.144c28.032 0 50.624 22.72 50.624 50.752v17.152c0 27.904-22.656 50.688-50.624 50.688z" />
<glyph unicode="&#xe612;" d="M1007.808 767.296c-1.088 1.28-1.408 2.88-2.688 3.968-1.152 1.152-2.752 1.472-3.968 2.688l-163.136 163.072c-1.152 1.28-1.472 2.88-2.624 4.032-1.28 1.152-2.816 1.6-3.968 2.688-25.856 22.208-64.384 21.76-88.896-2.688l-565.248-565.12 262.656-262.656 565.248 565.312c24.384 24.32 24.832 62.848 2.624 88.704zM834.624 807.168l-460.032-459.968c-6.464-6.464-14.848-9.728-23.296-9.728-8.384 0-16.832 3.264-23.168 9.6-12.864 12.8-12.864 33.536 0 46.528l460.032 460.032c12.864 12.864 33.6 12.864 46.528 0 12.8-12.8 12.8-33.536-0.064-46.464zM0-64l393.216 131.072-262.144 262.208z" />
<glyph unicode="&#xe613;" d="M292.544 494.144c-161.536 0-292.544-82.24-292.544-183.744 0-52.864 36.096-100.288 93.248-133.888-6.144-33.728-25.28-92.736-86.976-130.112 0 0 124.544 2.176 194.496 90.624 28.992-6.144 59.52-10.24 91.84-10.24 161.536 0 292.416 82.24 292.416 183.616 0 101.504-130.88 183.744-292.48 183.744zM900.736 402.88c76.032 47.36 123.264 112.832 123.264 185.344 0 144.384-186.304 261.44-416.32 261.44-229.952 0-416.384-117.056-416.384-261.44 0-6.208 0.768-12.16 1.408-18.24 31.808 6.016 65.088 9.472 99.84 9.472 201.728 0 361.6-107.328 376.32-248 25.728 2.176 50.496 5.888 74.56 10.624 23.808-35.968 89.664-105.856 251.328-124.992 0 0.064-77.824 70.784-94.016 185.792z" />
<glyph unicode="&#xe614;" d="M510.016 124.928c0-46.657-37.823-84.48-84.48-84.48s-84.48 37.823-84.48 84.48c0 46.657 37.823 84.48 84.48 84.48 46.657 0 84.48-37.823 84.48-84.48zM927.104 124.928c0-46.657-37.823-84.48-84.48-84.48s-84.48 37.823-84.48 84.48c0 46.657 37.823 84.48 84.48 84.48 46.657 0 84.48-37.823 84.48-84.48zM1014.848 668.416c-22.464 64.512-71.424 58.496-71.424 58.496h-707.712l-75.776 112.704-1.408 0.896c-4.672 8.832-13.504 14.976-24.192 14.976h-70.848c-35.136 0-63.488-28.48-63.488-63.552 0-32.448 24.64-58.24 56.192-61.952l46.208-3.072c100.544-136.704 210.688-405.888 210.688-405.888l0.192-0.128c3.904-10.624 13.76-18.112 25.536-18.112 0.384 0 0.768 0.128 1.152 0.128h539.008c148.8 116.992 158.272 301.056 135.872 365.504z" />
<glyph unicode="&#xe615;" d="M832 960h192v-1024h-192v1024zM0 960h128v-1024h-128v1024zM640 960h64v-914.432h-64v914.432zM256 960h64v-914.432h-64v914.432zM448 960h128v-914.432h-128v914.432z" />
<glyph unicode="&#xe616;" d="M988.608 228.224l-7.552 14.592c-84.672 159.808-222.912 421.504-307.712 581.184l-7.616 14.336c-84.544 160-223.040 160-307.52 0l-7.68-14.336c-84.544-159.68-222.848-421.376-307.584-581.184l-7.552-14.592c-84.736-159.872-12.032-290.624 161.408-290.624h630.4c173.312 0 246.144 130.752 161.408 290.624zM512.064 33.6c-40.512 0-73.28 32.832-73.28 73.216 0 40.512 32.768 73.344 73.28 73.344 40.448 0 73.216-32.832 73.216-73.344 0-40.384-32.768-73.216-73.216-73.216zM585.28 310.656c0-40.384-32.768-73.216-73.216-73.216-40.512 0-73.28 32.832-73.28 73.216v365.888c0 40.448 32.768 73.216 73.28 73.216 40.448 0 73.216-32.768 73.216-73.216v-365.888z" />
<glyph unicode="&#xe617;" d="M741.888 670.528c0-152.66-103.154-276.416-230.4-276.416s-230.4 123.756-230.4 276.416c0 152.66 103.154 276.416 230.4 276.416 127.246 0 230.4-123.756 230.4-276.416zM1018.816 32.384c-13.184 59.136-50.816 139.136-153.216 203.136-85.12 53.12-211.968 69.248-354.176 69.248-142.272 0-266.624-16.128-351.872-69.248-107.968-67.52-144.512-152.64-156.416-212.352-1.472-5.184-3.136-10.304-3.136-15.936 0-0.384 0.192-0.768 0.192-1.152 0.64-31.488 26.24-57.024 57.92-57.024h908.608c30.4 0 54.528 23.36 57.28 53.12 0.128 1.792-1.344 22.592-5.184 30.208z" />
<glyph unicode="&#xe618;" d="M217.792 378.88l27.328 4.48c5.76-35.84 20.16-53.76 43.456-53.76 12.544 0 23.424 5.248 32.64 15.872s13.76 24.448 13.76 41.344c0 15.936-4.224 28.672-12.672 38.4-8.448 9.728-18.752 14.528-31.040 14.528-5.184 0-11.648-1.28-19.328-3.776l3.136 29.376 4.288-0.384c13.568 0 24.64 4.096 33.088 12.416 8.448 8.32 12.672 19.456 12.672 33.28 0 12.736-3.584 22.976-10.624 30.72s-15.744 11.648-25.92 11.648c-10.56 0-19.456-4.032-26.752-12.16-7.232-8.192-11.904-20.48-13.888-36.992l-27.328 5.952c3.456 23.296 11.264 40.96 23.424 52.8 12.224 11.968 26.816 17.856 44.096 17.856 18.048 0 33.408-6.656 46.144-20.032 12.608-13.376 18.944-30.272 18.944-50.56 0-12.352-2.688-23.36-8.064-32.896-5.312-9.536-12.8-17.088-22.464-22.528 8.896-2.496 16.256-6.528 22.016-12.224 5.824-5.696 10.496-13.312 14.080-22.848 3.584-9.472 5.376-20.096 5.376-32 0-25.024-7.36-45.44-22.144-61.376-14.784-15.936-32.448-23.872-53.056-23.872-19.072 0-35.264 6.912-48.512 20.8-13.248 13.952-20.672 32.576-22.656 55.936zM518.528 512.832l-27.328-2.624c-2.624 13.952-6.464 23.872-11.52 29.824-7.296 8.576-16.064 12.992-26.368 12.992-15.936 0-28.736-9.92-38.4-29.76-8.256-17.152-12.48-42.432-12.608-75.904 6.336 11.904 14.272 20.864 23.744 27.008 9.536 6.208 19.712 9.28 30.4 9.28 17.664 0 33.216-8.064 46.4-24.128 13.184-16 19.84-37.504 19.84-64.384 0-18.24-3.328-34.752-9.92-49.6-6.656-14.72-15.168-25.664-25.536-32.832-10.432-7.040-21.888-10.56-34.432-10.56-22.592 0-41.152 10.112-55.808 30.592-14.72 20.288-22.080 54.208-22.080 101.632 0 52.672 7.488 90.24 22.528 112.64s34.176 33.472 57.536 33.472c17.024 0 31.168-5.824 42.624-17.344 11.456-11.52 18.432-28.352 20.928-50.304zM406.592 395.136c0-19.776 4.608-35.584 13.952-47.488 9.344-12.032 20.096-18.048 32.384-18.048 10.816 0 20.416 5.696 28.928 17.024 8.512 11.328 12.736 26.816 12.736 46.528 0 19.392-4.224 34.368-12.672 45.056-8.448 10.624-18.688 16-30.848 16-11.904 0-22.272-5.312-31.104-15.936-8.96-10.688-13.376-25.088-13.376-43.136zM534.656 441.216c0 45.76 6.208 80.448 18.496 104 12.416 23.488 30.592 35.264 54.656 35.264 21.312 0 38.144-9.536 50.368-28.608 14.784-23.040 22.336-60.032 22.336-110.656 0-45.44-6.144-80.064-18.368-103.616-12.224-23.616-30.528-35.52-54.656-35.52-21.312 0-38.784 10.368-52.352 31.232-13.632 20.864-20.48 56.832-20.48 107.904zM562.816 441.344c0-44.288 4.16-73.984 12.736-89.088 8.512-15.104 19.456-22.656 32.704-22.656 12.544 0 22.976 7.616 31.488 22.784 8.448 15.232 12.608 44.864 12.608 88.832 0 44.352-4.16 74.112-12.672 89.152-8.576 15.040-19.584 22.656-33.024 22.656-12.352 0-22.784-7.68-31.168-22.912-8.512-15.232-12.672-44.928-12.672-88.768zM881.728 291.648l142.272 156.352h-113.728c0 251.264-203.84 455.104-455.168 455.104-251.264 0-455.104-203.84-455.104-455.104 0-251.328 203.84-455.104 455.040-455.104 163.52 0 306.368 86.592 386.624 215.872l-39.872 43.968c-68.224-121.088-197.888-202.944-346.688-202.944-219.84 0-398.208 178.368-398.208 398.336 0 220.032 178.368 398.272 398.208 398.272 220.032 0 398.208-178.24 398.208-398.272h-113.6l142.016-156.48z" />
<glyph unicode="&#xe619;" d="M576 480v-192l448 320-448 320c0 0 8.128-192 0-192-384-0.064-384-576.064-384-576.064s0 320.064 384 320.064zM896 352v-256h-768v576h64l128 128h-252.032c-1.344 0.064-2.624 0.832-3.968 0.832-1.472 0-2.624-0.768-3.968-0.832-33.536-2.176-60.032-29.312-60.032-63.168v-704.832c0-35.328 28.608-64 64-64h896c35.392 0 64 28.672 64 64v384l-128-64z" />
<glyph unicode="&#xe61a;" d="M995.136 104l-215.872 215.872c99.328 161.984 79.232 376.448-61.056 516.992-164.224 164.16-430.72 164.16-594.944 0-164.288-164.416-164.352-430.848 0-595.072 140.16-140.352 354.88-160.512 516.928-60.992l215.872-215.872c38.528-38.528 100.672-38.528 139.136 0 38.464 38.336 38.336 100.544-0.064 139.072zM622.464 337.472c-111.488-111.36-292.096-111.36-403.52 0-111.36 111.424-111.36 292.096 0 403.52 111.36 111.36 292.032 111.36 403.52 0 111.36-111.424 111.36-292.032 0-403.52z" />
<glyph unicode="&#xe61b;" d="M959.616 959.936h-342.272c-35.264 0-84.608-20.48-109.504-45.504l-488.896-488.896c-25.28-25.024-25.28-66.048 0-90.88l379.776-379.904c25.024-24.896 65.92-24.896 90.88 0l488.896 488.896c25.024 25.024 45.504 74.368 45.504 109.888l-0.064 342.144c0.064 35.2-29.056 64.192-64.32 64.256zM888.512 673.792c-43.072-43.008-112.704-43.008-155.712 0-42.944 42.944-42.944 112.64 0 155.52 43.008 43.008 112.64 43.072 155.648 0.064 43.072-43.008 42.944-112.704 0.064-155.584z" />
<glyph unicode="&#xe61c;" d="M384 576h256v-640h-256v640zM768 960h256v-1024h-256v1024zM0 384h256v-448h-256v448z" />
<glyph unicode="&#xe61d;" d="M896 960h-768c-70.656 0-128-57.344-128-128v-768c0-70.72 57.344-128 128-128h768c70.72 0 128 57.28 128 128v768c0 70.656-57.28 128-128 128zM681.856 160.64l-171.584 171.712-170.112-170.048-114.304 114.304 169.984 170.048-171.072 171.328 117.248 117.248 171.136-171.392 169.984 170.048 114.368-114.304-170.112-169.984 171.904-171.712-117.44-117.248z" />
<glyph unicode="&#xe61e;" d="M512.128 960c-282.88 0-512.128-229.184-512.128-511.936 0-282.816 229.248-512.064 512.128-512.064 282.752 0 511.872 229.248 511.872 512.064 0 282.752-229.12 511.936-511.872 511.936zM811.648 560.64l-359.552-359.36c-24.768-24.96-64.96-24.96-89.792 0l-179.648 179.648c-24.896 24.832-24.896 65.024-0.064 89.856s65.088 24.832 89.856 0l134.784-134.72 314.56 314.432c24.96 24.896 65.024 24.832 89.984 0 24.576-24.768 24.576-65.024-0.128-89.856z" />
<glyph unicode="&#xe61f;" d="M512 934.912l130.496-380.608h381.504l-321.6-253.824 125.952-339.328-316.352 213.504-316.416-213.504 126.080 339.328-321.664 253.824h381.376z" />
<glyph unicode="&#xe620;" d="M985.024 769.344l-945.856 0.128c-21.696 0.192-39.168-17.408-39.168-38.912v-48.576c0-21.504 17.472-38.976 39.168-38.976h945.856c21.632 0 38.976 17.28 38.976 38.976v48.448c0 21.632-17.344 39.040-38.976 38.912zM985.024 511.232h-945.856c-21.696 0.064-39.168-17.408-39.168-38.976v-48.512c0-21.568 17.472-38.848 39.168-38.848l945.792-0.192c21.696 0 39.040 17.472 39.040 38.976v48.576c0 21.504-17.344 39.040-38.976 38.976zM985.024 252.864l-945.856 0.192c-21.696 0.128-39.168-17.408-39.168-39.040v-48.512c0-21.504 17.472-38.976 39.168-38.976h945.856c21.632 0 38.912 17.344 38.912 38.976v48.384c0.064 21.76-17.28 39.168-38.912 38.976z" />
<glyph unicode="&#xe621;" d="M509.632 330.944l-148.288 81.984-209.664-296.96h720.704l-210.752 298.432zM0 612.736v-489.728l248.768 352.192zM1024 759.424v20.608h-1024v-21.056l509.888-281.92zM1024 123.136v490.24l-249.472-137.024z" />
<glyph unicode="&#xe622;" d="M985.28 767.040l-690.368 0.064c-21.44 0.192-38.848-17.28-38.848-38.656v-48.32c0-21.312 17.408-38.656 38.848-38.656h690.368c21.44-0.064 38.72 17.152 38.72 38.656v48.192c0 21.504-17.28 38.784-38.72 38.72zM985.28 510.464h-690.368c-21.44 0.128-38.848-17.344-38.848-38.848v-48.064c0-21.504 17.408-38.656 38.848-38.656l690.304-0.192c21.504 0 38.784 17.344 38.784 38.72v48.192c0 21.44-17.28 38.976-38.72 38.848zM985.28 253.696l-690.368 0.128c-21.44 0.128-38.848-17.344-38.848-38.656v-48.256c0-21.376 17.408-38.72 38.848-38.72h690.368c21.504 0 38.656 17.28 38.656 38.72v48.128c0.064 21.312-17.216 38.784-38.656 38.656zM64 768.32c-35.328 0-64-28.672-64-64 0-35.392 28.672-64 64-64s64 28.608 64 64c0 35.328-28.672 64-64 64zM64 511.936c-35.328 0-64-28.608-64-64 0-35.456 28.672-64 64-64s64 28.544 64 64c0 35.392-28.672 64-64 64zM64 255.68c-35.328 0-64-28.608-64-64 0-35.456 28.672-64 64-64s64 28.544 64 64c0 35.392-28.672 64-64 64z" />
<glyph unicode="&#xe623;" d="M0 659.328v-405.056l541.952-266.112v911.936l-541.952-240.768zM502.464 71.104l-476.032 217.344v329.088l476.032 190.976v-737.408zM611.904 903.936v-914.688h412.096v914.688h-412.096zM931.52 80.896h-227.072v177.216h227.072v-177.216zM931.52 356.608h-227.072v177.152h227.072v-177.152zM931.52 621.376h-227.072v177.216h227.072v-177.216zM127.744 555.136l-62.272-15.616v52.672l62.272 23.552zM268.608 586.88l-104.064-20.416v65.344l104.064 33.088zM452.288 617.984l-142.080-27.456v87.296l142.080 46.848zM448.384 390.4l-142.016 19.2v83.456l142.016 4.032zM267.2 416.832l-108.48 14.592v57.408l108.48 5.952zM127.744 436.416l-66.112 3.712v44.992l66.112 4.032zM129.472 299.776l-66.176 26.944v45.056l66.176-19.264zM263.808 242.24l-104.064 45.504v57.6l104.064-25.088zM450.56 165.248l-141.952 58.112v83.392l141.952-34.752z" />
<glyph unicode="&#xe624;" d="M512 960.064c-282.752 0-512-229.248-512-512.128 0-282.688 229.248-512 512-512 282.88 0 512 229.312 512 512 0 282.88-229.12 512.128-512 512.128zM585.28 163.2c0-40.448-32.832-73.152-73.344-73.152s-73.216 32.704-73.216 73.152v365.888c0 40.448 32.704 73.216 73.216 73.216s73.344-32.768 73.344-73.216v-365.888zM511.936 659.712c-40.512 0-73.216 32.64-73.216 73.216 0 40.32 32.704 73.152 73.216 73.152s73.344-32.832 73.344-73.152c0-40.576-32.832-73.216-73.344-73.216z" />
<glyph unicode="&#xe625;" d="M1023.744 67.072l-0.896 371.968-122.368 422.848c0 0.512-2.432 13.44-5.248 17.984-5.12 8-13.376 13.568-23.168 14.592-0.64 0.064-719.552 0.064-720.192 0-9.792-0.96-17.984-6.464-23.040-14.528-2.88-4.608-5.312-17.536-5.312-18.048l-122.432-422.912-0.832-371.968c0-0.512-0.256-0.96-0.256-1.536 0-0.32 0.256-0.96 0.256-1.472 0.896-34.496 28.928-62.528 63.68-62.528h896.128c34.688 0 62.784 27.904 63.68 62.528 0 0.576 0.256 1.152 0.256 1.472 0 0.576-0.256 1.024-0.256 1.6zM719.104 438.848c-0.256 0-0.384 0.256-0.64 0.256s-0.384-0.128-0.64-0.128c-8.96-0.128-16.768-3.968-22.464-9.856-3.072-3.136-5.184-6.72-6.656-10.816l-72.576-118.336h-208.256l-72.576 118.208c-1.536 4.096-3.712 7.808-6.784 10.944-5.696 5.952-13.504 9.6-22.4 9.856-0.192 0-0.384 0.128-0.64 0.128s-0.384-0.256-0.64-0.256h-216.704l110.464 396.48h626.752l110.464-396.48h-216.704z" />
<glyph unicode="&#xe626;" d="M249.6 867.904h-95.552v-164.992l95.552 74.112zM767.936 709.952l-255.936 198.080-512-396.096h134.016v-523.968h304.64v334.72h160v-334.72h291.328v523.968h134.016z" />
<glyph unicode="&#xe627;" d="M192.064 18.752c-16.32 0-29.504 13.248-29.504 29.504v799.488c0 16.32 13.184 29.504 29.504 29.504h364.928c-22.144-66.816-40.832-153.28-41.728-157.312-7.040-33.088 5.376-67.264 32-88.128 15.872-12.416 35.136-18.816 54.464-18.816 13.12 0 26.368 2.944 38.656 8.896 24 11.648 49.472 17.472 76.096 17.472 30.656 0 52.096-7.872 52.224-7.872 11.648-4.928 24.768-6.592 35.776-7.040 2.88 0 5.632 0.64 8.512 0.896v-81.536c30.528-15.104 58.24-34.496 82.752-57.472v240.576c0 23.296-9.6 45.952-27.008 62.592l-158.016 147.904c-16 14.528-36.608 22.592-58.112 22.592h-487.232c-47.168 0-85.504-38.464-85.504-85.632v-852.736c0-47.232 38.336-85.632 85.504-85.632h343.808c-40.256 20.48-75.904 48.64-104.96 82.752h-212.16zM601.728 701.44c0 0 22.4 104.64 45.888 167.040l155.648-155.648c0 0.064-94.912 40.32-201.536-11.392zM662.976 520c-155.136 0-281.088-125.76-281.088-281.152 0-155.264 125.952-281.152 281.088-281.152 155.264 0 281.152 125.888 281.152 281.152 0 155.392-125.888 281.152-281.152 281.152zM663.36 37.888l-140.224 220.032h85.12v181.952h109.632v-182.016h85.12l-139.648-219.968z" />
<glyph unicode="&#xe628;" d="M874.176 73.6h-724.352c-38.016 0-68.8-30.784-68.8-68.8 0-38.080 30.784-68.8 68.8-68.8h724.352c38.016 0 68.8 30.72 68.8 68.8 0 38.016-30.784 68.8-68.8 68.8zM460.608 163.776c13.056-14.656 31.744-23.040 51.392-23.040s38.4 8.384 51.392 22.976l267.008 299.456c25.344 28.416 22.784 71.936-5.632 97.28-28.224 25.216-71.744 22.784-97.152-5.632l-146.816-164.544v500.864c0 38.016-30.656 68.864-68.8 68.864-38.080 0-68.8-30.848-68.8-68.864v-500.992l-146.944 164.736c-25.408 28.416-68.736 30.848-97.216 5.632-28.352-25.344-30.848-68.864-5.568-97.28l267.136-299.456z" />
<glyph unicode="&#xe629;" d="M992 576h-352v352c0 17.672-14.328 32-32 32h-192c-17.672 0-32-14.328-32-32v-352h-352c-17.672 0-32-14.328-32-32v-192c0-17.672 14.328-32 32-32h352v-352c0-17.672 14.328-32 32-32h192c17.672 0 32 14.328 32 32v352h352c17.672 0 32 14.328 32 32v192c0 17.672-14.328 32-32 32z" />
<glyph unicode="&#xe62a;" d="M721.856 594.304c0-139.335-94.156-252.288-210.304-252.288s-210.304 112.953-210.304 252.288c0 139.335 94.156 252.288 210.304 252.288 116.148 0 210.304-112.953 210.304-252.288zM974.656 11.904c-12.096 54.080-46.464 126.976-139.904 185.344-77.76 48.512-193.344 63.232-323.264 63.232-129.984 0-243.328-14.72-321.152-63.232-98.56-61.504-131.904-139.2-142.784-193.728-1.344-4.736-2.88-9.344-2.88-14.464 0-0.384 0.192-0.704 0.192-1.088 0.64-28.864 23.936-51.968 52.928-51.968h829.312c27.776 0 49.728 21.376 52.032 48.512 0.256 1.536-1.28 20.352-4.48 27.392zM194.304 473.088c19.328-49.728 52.48-113.088 107.072-153.344 4.544-3.392 9.728-4.8 14.976-4.8 7.808 0 15.488 3.584 20.416 10.24 8.256 11.2 5.952 27.008-5.312 35.328-41.856 30.848-69.504 80.704-86.72 122.432 21.76 13.376 37.12 36.352 37.184 63.744v91.2c0 26.88-14.784 49.344-35.776 62.848 25.856 81.216 93.504 208.704 263.68 208.704 0.32 0 0.704 0 0.96 0 201.088-0.576 261.952-211.008 264.448-219.904 3.776-13.504 18.624-21.696 33.472-18.304 14.784 3.392 23.68 17.088 20.032 30.656-0.64 2.624-73.472 257.472-317.824 258.112-0.384 0-0.768 0-1.152 0-205.376 0-286.4-154.752-316.736-248.832-35.584-6.4-62.976-35.968-62.976-73.28v-91.2c0-37.824 28.16-67.776 64.256-73.6z" />
<glyph unicode="&#xe62b;" d="M500.928 734.592c-26.624 62.72-80.448 106.048-143.104 106.048-89.024 0-161.28-86.592-161.28-193.344s72.256-193.472 161.28-193.472c34.432 0 65.984 13.504 92.16 35.584-5.824 22.528-9.792 45.888-9.792 70.656 0 67.52 23.36 128.576 60.736 174.528zM385.344 310.016c37.376 23.296 84.992 38.464 142.528 47.744-6.592 5.888-12.032 13.312-18.048 19.968-45.504 9.536-96.704 13.632-152 13.632-99.648 0-186.624-11.328-246.208-48.512-75.52-47.168-101.056-106.688-109.44-148.544-0.96-3.584-2.176-7.104-2.176-11.072 0-0.256 0.128-0.512 0.128-0.768 0.448-22.080 18.304-39.936 40.576-39.936h211.84c13.952 49.472 49.28 115.328 132.8 167.488zM826.624 560c0-106.816-72.179-193.408-161.216-193.408s-161.216 86.592-161.216 193.408c0 106.816 72.179 193.408 161.216 193.408 89.037 0 161.216-86.592 161.216-193.408zM1020.352 113.6c-9.344 41.344-35.584 97.344-107.2 142.080-59.584 37.184-148.224 48.512-247.808 48.512s-186.56-11.328-246.144-48.512c-75.584-47.104-101.12-106.624-109.44-148.544-1.024-3.584-2.24-7.104-2.24-11.072 0-0.256 0.192-0.512 0.192-0.768 0.448-22.080 18.304-39.936 40.512-39.936h635.712c21.312 0 38.208 16.448 40.064 37.184 0.064 1.28-1.088 15.68-3.648 21.056z" />
<glyph unicode="&#xe62c;" d="M512 161.92c-23.552 0-47.040 8.512-65.728 25.344l-414.272 376.832c-39.936 36.224-42.88 98.112-6.592 137.984 36.352 40 98.112 42.752 137.92 6.592l348.672-316.928 348.608 316.928c39.872 36.16 101.696 33.344 137.856-6.656 36.288-39.872 33.344-101.76-6.592-137.984l-414.336-376.704c-18.56-16.896-41.984-25.408-65.536-25.408z" />
<glyph unicode="&#xe62d;" d="M225.92 448c0 23.552 8.512 47.040 25.344 65.728l376.832 414.272c36.224 39.936 98.112 42.88 137.984 6.592 40-36.352 42.752-98.112 6.592-137.92l-316.928-348.672 316.928-348.608c36.16-39.872 33.344-101.696-6.656-137.856-39.872-36.288-101.76-33.344-137.984 6.592l-376.704 414.336c-16.896 18.56-25.408 41.984-25.408 65.536z" />
<glyph unicode="&#xe62e;" d="M798.080 448c0-23.552-8.512-47.040-25.344-65.728l-376.832-414.272c-36.224-39.936-98.112-42.88-137.984-6.592-40 36.352-42.752 98.112-6.592 137.92l316.928 348.672-316.928 348.608c-36.16 39.872-33.344 101.696 6.656 137.856 39.872 36.288 101.76 33.344 137.984-6.592l376.704-414.336c16.896-18.56 25.408-41.984 25.408-65.536z" />
<glyph unicode="&#xe62f;" d="M651.52 953.472c-205.76 0-372.544-104.768-372.544-234.048 0-67.328 46.016-127.68 118.784-170.496-7.872-43.072-32.256-118.208-110.912-165.824 0 0 158.72 2.752 247.808 115.52 36.864-7.872 75.776-13.12 116.928-13.12 205.76 0.064 372.416 104.832 372.416 233.984 0 129.28-166.656 233.984-372.48 233.984zM730.24 75.648l-128 127.936c-85.312 85.312-74.048-36.288-134.336-36.288-71.36 0-99.904 16.96-121.344 36.544-2.048 1.664-22.528 22.144-42.88 42.432-20.16 20.352-40.64 40.768-42.496 42.816-19.584 21.568-36.48 50.048-36.48 121.344 0 60.416 121.6 49.088 36.288 134.336l-127.872 128.064c-40.128 55.36-172.288-49.984-121.728-219.712 25.536-85.376 96.192-173.632 165.632-248.32l-1.344-1.28c13.184-13.248 27.776-27.584 42.816-42.56 14.72-14.848 29.184-29.44 42.496-42.816l1.28 1.344c74.752-69.44 162.88-140.096 248.32-165.76 169.792-50.368 275.008 81.856 219.648 121.92z" />
<glyph unicode="&#xe630;" d="M822.443 667.506l-311.324-311.324-311.324 311.339-100.907-100.907 412.245-412.26 412.231 412.231z" />
<glyph unicode="&#xe631;" d="M738.112 448l-452.224-384v768l226.112-192z" />
<glyph unicode="&#xe632;" d="M941.632-57.344c0-3.648-2.496-6.656-5.504-6.656h-848.256c-3.008 0-5.504 3.008-5.504 6.656v565.184c0 3.712 2.496 6.656 5.504 6.656h848.256c3.008 0 5.504-3.008 5.504-6.656v-565.184zM504.512 960c-206.208 0-373.504-158.464-373.504-353.856 0-13.248 0.896-26.368 2.304-39.232h140.16c-0.896 8.128-1.472 16.512-1.472 24.96 0 124.48 106.496 225.344 237.888 225.344 131.328 0 237.824-100.864 237.824-225.344 0-8.448-0.64-16.832-1.6-25.024h129.472c1.472 12.864 2.368 25.984 2.368 39.232 0.064 195.456-167.232 353.92-373.44 353.92z" />
<glyph unicode="&#xe633;" d="M723.392 778.624v94.144c0 45.504-36.928 82.496-82.368 82.496h-553.984c-45.44 0-82.368-36.992-82.368-82.496v-553.728c0-45.376 36.928-82.304 82.368-82.304h94.272v400.512c0 78.272 63.168 141.376 141.248 141.376h400.832zM936.96 659.328h-554.048c-45.44 0-82.368-36.928-82.368-82.496v-553.792c0-45.376 36.928-82.304 82.368-82.304h553.984c45.376 0 82.368 36.928 82.368 82.304v553.792c0.064 45.568-36.928 82.496-82.304 82.496z" />
<glyph unicode="&#xe634;" d="M983.808 733.696h-197.184l-32.896 96.384c0 26.624-21.568 48.192-48.192 48.192h-392.512c-26.624 0-48.128-21.568-48.128-48.192l-31.104-96.384h-193.6c-22.208 0-40.192-17.984-40.192-40.128v-635.648c0-22.208 17.984-40.192 40.192-40.192h943.616c22.208 0 40.192 17.984 40.192 40.192v635.648c0 22.144-17.984 40.128-40.192 40.128zM512 116.16c-143.104 0-259.584 116.416-259.584 259.584s116.48 259.584 259.584 259.584 259.52-116.416 259.52-259.584-116.416-259.584-259.52-259.584zM512 538.944c-89.984 0-163.2-73.216-163.2-163.2s73.216-163.2 163.2-163.2c89.92 0 163.2 73.216 163.2 163.2s-73.28 163.2-163.2 163.2z" />
<glyph unicode="&#xe635;" d="M504.64 960c-206.336 0-373.504-158.464-373.504-353.792 0-13.312 0.896-26.368 2.304-39.296h140.032c-0.832 8.128-1.408 16.576-1.408 24.96 0 124.48 106.496 225.344 237.888 225.344 131.328 0 237.824-100.864 237.824-225.344 0-8.384-0.512-16.832-1.408-25.024h129.408c1.344 12.928 2.304 25.984 2.304 39.296 0 195.392-167.296 353.856-373.44 353.856zM934.848 429.44l-402.688-402.624c-27.776-27.904-72.832-27.904-100.544 0l-201.344 201.28c-27.904 27.776-27.904 72.896-0.192 100.672 28.032 27.84 73.024 27.84 100.736 0l150.976-150.976 336.704 336.704h-730.624c-3.008 0-5.504-3.008-5.504-6.656v-565.12c0-3.712 2.496-6.72 5.504-6.72h848.384c2.944 0 5.376 3.008 5.376 6.656v495.040c-2.048-2.816-4.224-5.76-6.784-8.256z" />
<glyph unicode="&#xe636;" d="M626.752 960h-597.312v-1024l96.832 64 97.024-64 96.576 64 96.512-64 96.64 64 96.512-64 96.256 64 96.704-64 96.128 64 96.064-64v1024h-367.936zM732.736 333.76l-104.512-73.984c-33.664 45.824-73.408 108.224-119.296 187.2-42.944-81.856-80.704-144.256-113.216-187.264l-102.72 74.048c67.392 83.072 115.52 137.856 144.576 164.608-74.944 14.528-145.984 30.72-213.312 48.768l40 123.712c92.288-32.576 159.36-60.672 201.152-84.48-11.008 105.024-16.768 177.344-17.408 216.768h126.272c-1.792-57.472-8.384-129.472-20.032-215.936 59.776 30.208 128.256 58.048 205.504 83.648l40-123.712c-73.664-24.384-145.984-40.64-216.768-48.768 35.392-30.72 85.312-85.632 149.76-164.608z" />
<glyph unicode="&#xe637;" d="M285.888 448l452.224 384v-768l-226.112 192z" />
<glyph unicode="&#xe638;" d="M512 221.888l-384 452.224h768l-192-226.112z" />
<glyph unicode="&#xe639;" d="M201.557 228.494l311.324 311.324 311.324-311.339 100.907 100.907-412.245 412.26-412.231-412.231z" />
<glyph unicode="&#xe63a;" d="M512 846.784c-282.816 0-512-166.656-512-372.352 0-108.544 64.256-206.016 166.272-273.984-19.52-50.688-55.68-109.184-125.184-151.232 0 0 142.016 2.752 256 87.616 65.408-22.080 138.048-34.752 214.912-34.752 282.816 0 512 166.72 512 372.352 0 205.696-229.184 372.352-512 372.352zM743.872 460.48c0-31.808-25.664-57.664-57.536-57.664h-107.008v-106.88c0-31.936-25.664-57.6-57.536-57.6h-19.584c-31.808 0-57.472 25.664-57.472 57.6v106.88h-107.072c-31.808 0-57.536 25.856-57.536 57.664v19.52c-0.128 31.744 25.664 57.6 57.408 57.472h106.944v106.816c0 31.936 25.728 57.664 57.536 57.664l19.648 0.256c31.808-0.064 57.536-25.856 57.536-57.664v-106.944h107.072c31.808 0 57.536-25.856 57.536-57.6v-19.52z" />
<glyph unicode="&#xe63b;" d="M377.088 960l-225.152-136.768 0.192-0.896h-0.192v-158.080l494.976-109.184v147.84c16.128 18.688 45.888 49.728 83.392 72.448 28.224 17.152 51.008 24.832 68.224 28.224v-695.232c-21.376-3.456-49.28-12.224-83.648-33.152-27.264-16.512-50.24-36.544-67.968-54.272v501.44l-494.976 109.12v-586.752l494.912-108.736v41.344c16.128 18.688 45.888 49.728 83.392 72.512 42.24 25.6 72.768 30.592 89.984 30.656l51.904-6.784v777.536l-495.040 108.736zM714.88 800.832c-43.648-26.368-76.608-61.888-93.248-81.664l-393.152 86.336 150.016 91.84 365.888-80.64c-9.28-4.352-19.136-9.536-29.504-15.872z" />
<glyph unicode="&#xe63c;" d="M1024 960v-416l-160 160-192-192-96 96 192 192-160 160zM448 288l-192-192 160-160h-416v416l160-160 192 192z" />
<glyph unicode="&#xe63d;" d="M448 384v-416l-160 160-192-192-96 96 192 192-160 160zM1024 864l-192-192 160-160h-416v416l160-160 192 192z" />
<glyph unicode="&#xe63e;" d="M896 966.272h-768c-70.72 0-128-61.504-128-137.344v-664.768l26.112 29.632c16.64-61.504 77.248-207.488 277.504-249.472l-12.864-14.528h605.248c70.72 0 128 61.888 128 137.728v761.408c0 75.84-57.28 137.344-128 137.344zM510.080 894.080c1.28-0.832 2.24-1.536 3.648-2.56 3.008-2.176 6.272-4.992 9.6-8 1.024-0.832 1.856-1.472 2.88-2.432 4.288-4.032 8.704-8.96 12.928-14.336 1.088-1.472 2.112-3.2 3.264-4.8 3.008-4.224 5.952-8.96 8.64-14.080 1.344-2.496 2.432-5.12 3.648-7.872 2.112-4.992 3.968-10.368 5.568-16 0.96-3.2 1.856-6.336 2.496-9.664 1.344-6.656 2.048-14.144 2.496-21.76 0.064-3.008 0.576-5.632 0.576-8.768-0.128-10.432-1.344-21.888-3.84-33.984l-110.912-123.904-57.344 139.2 112.64 131.392c1.216-0.768 2.304-1.536 3.712-2.432zM581.12 729.92c6.272-0.32 17.664-1.408 31.296-3.904 39.488-10.112 100.928-44.48 129.344-156.992l-121.088-134.784-155.456 166.4 115.904 129.28zM324.544-32c-229.12 39.744-270.464 216.256-276.224 250.88l60.992 68.992c14.336-57.344 71.552-209.344 273.408-254.016l-58.176-65.856zM403.712 57.472c-243.392 45.12-270.592 246.848-271.616 255.744 0 0.128-0.128 0.128-0.128 0.256l55.040 62.272c15.552-59.776 74.752-208.384 275.52-251.648l-58.816-66.624zM483.456 147.776c-234.368 42.112-270.336 228.096-274.112 253.376l60.736 68.8c19.328-65.664 83.84-205.376 282.176-244.16l-68.8-78.016zM573.312 249.472c-221.504 35.264-271.488 197.056-281.536 244.928l125.376 141.76 16.768-41.024c0.512-1.088 1.472-1.856 2.112-2.816 0.32-0.448 0.192-0.96 0.576-1.344l170.24-182.272c2.304-2.304 5.184-3.84 8.384-4.224l7.296-0.896c0.576-0.128 1.216-0.128 1.664-0.128s0.832 0.512 1.344 0.64l74.56-11.008-126.784-143.616zM862.208 396.992l-210.176 30.976 110.72 123.328c3.968 0.512 8.384 0.96 13.12 1.344 11.328 0.96 24.32 1.472 38.656 1.536 3.712 0.064 7.36-0.064 11.136-0.128 6.208-0.128 12.288-0.384 18.624-0.832 5.184-0.32 10.368-0.768 15.616-1.344 3.584-0.384 7.040-0.704 10.624-1.152 8.32-1.216 16.512-2.624 24.32-4.544 2.304-0.512 4.352-1.216 6.656-1.792 6.528-1.728 12.736-3.904 18.624-6.336 1.92-0.832 3.968-1.536 5.824-2.432 7.168-3.456 13.824-7.296 19.328-12.032 0.704-0.576 1.088-1.344 1.792-1.92 3.328-3.072 5.632-6.784 8.064-10.496l-92.928-114.176zM967.424 540.736c-35.584 33.984-101.76 41.088-150.72 41.088-20.416 0-37.888-1.28-48.96-2.24-39.296 150.592-136.256 174.4-176.384 177.664 12.288 87.104-33.984 135.744-62.080 156.672 20.992 5.888 69.184 6.656 171.648-39.232 189.056-84.8 285.376-235.904 266.496-333.952zM0 103.872v-36.352c0-75.904 57.28-137.728 128-137.728h95.040c-171.904 10.112-214.4 107.968-223.040 174.080z" />
<glyph unicode="&#xe63f;" d="M512 734.080c23.552 0 47.040-8.512 65.728-25.344l414.272-376.832c39.936-36.224 42.88-98.112 6.592-137.984-36.352-40-98.112-42.752-137.92-6.592l-348.672 316.928-348.608-316.928c-39.872-36.16-101.696-33.344-137.856 6.656-36.288 39.872-33.344 101.76 6.592 137.984l414.336 376.704c18.56 16.896 41.984 25.408 65.536 25.408z" />
</font>
</defs>
</svg>
